<svg xmlns="http://www.w3.org/2000/svg" width="66.111" height="61.994" viewBox="0 0 66.111 61.994">
  <g id="Group_11064" data-name="Group 11064" transform="translate(-30.255 -14.242)">
    <g id="Group_34" data-name="Group 34" transform="translate(30.255 14.241)">
      <path id="Path_9" data-name="Path 9" d="M1525.971,1203.407c-.309-.84-.581-1.589-.858-2.336a2.7,2.7,0,0,1-.179-1.6,2.415,2.415,0,0,1,2.018-1.909,2.443,2.443,0,0,1,2.458,1.16,4.39,4.39,0,0,1,.318.709q1.913,5.15,3.821,10.3c.045.122.088.244.136.365.086.218,0,.346-.209.415l-.443.148q-5.362,1.776-10.725,3.553a2.827,2.827,0,0,1-1.524.19,2.5,2.5,0,0,1-2.042-2.259,2.471,2.471,0,0,1,1.613-2.5c.41-.161.834-.29,1.252-.431s.823-.272,1.222-.4a.265.265,0,0,0-.2-.261,12.7,12.7,0,0,0-6.376-1.132c-.789.068-.8.069-.912.894a17.192,17.192,0,0,1-1.545,5.29,18.444,18.444,0,0,1-14.657,10.826,18.9,18.9,0,0,1-10.638-35.793,3.559,3.559,0,0,1,1.951-.421,2.96,2.96,0,0,1,1.269,5.447,7.318,7.318,0,0,1-.694.354,12.973,12.973,0,1,0,18.365,13.977,25.944,25.944,0,0,0,.182-4.279c.01-.929-.031-.766.729-1.022a21.579,21.579,0,0,1,6.862-1.3,19.036,19.036,0,0,1,8.014,1.728c.188.086.377.175.566.26A1.632,1.632,0,0,0,1525.971,1203.407Z" transform="translate(-1477.749 -1163.167)" fill="#fff"/>
      <path id="Path_10" data-name="Path 10" d="M1530.258,1135.424a5.865,5.865,0,0,0,1.5.33c.348.1.718.115,1.074.186a2.384,2.384,0,0,1,2.008,2.851,2.463,2.463,0,0,1-2.844,1.956c-.977-.139-1.948-.322-2.921-.489q-3.956-.679-7.911-1.361c-.984-.168-.986-.163-.792-1.091q1.152-5.533,2.307-11.065a2.465,2.465,0,0,1,4.738-.375,3.066,3.066,0,0,1,.046,1.693c-.128.659-.271,1.315-.4,1.951.214.182.328.019.435-.06a13.286,13.286,0,0,0,4.186-5.154c.208-.449-.055-.608-.33-.814a19.022,19.022,0,0,1-4.718-5.25,17.048,17.048,0,0,1-2.372-6.475,18.407,18.407,0,0,1,2.5-12.891,18.835,18.835,0,0,1,34.82,7.964,15.647,15.647,0,0,1-.017,3.733,2.955,2.955,0,0,1-5.866-.7,12.83,12.83,0,0,0-6.931-12.928,12.4,12.4,0,0,0-13.812,1.222,12.25,12.25,0,0,0-5.042,11.4,12.577,12.577,0,0,0,6.85,10.349c.546.3,1.1.582,1.662.864a.459.459,0,0,1,.273.565,19.781,19.781,0,0,1-5.889,11.526,17.226,17.226,0,0,1-2.078,1.645C1530.561,1135.111,1530.336,1135.166,1530.258,1135.424Z" transform="translate(-1509.165 -1090.327)" fill="#fff"/>
      <path id="Path_11" data-name="Path 11" d="M1578.42,1135.913c-.394.47-.785.943-1.182,1.411a9.6,9.6,0,0,1-.827.933,2.4,2.4,0,0,1-3.207.038,2.45,2.45,0,0,1-.521-3.175,3.833,3.833,0,0,1,.323-.44q3.582-4.327,7.169-8.65a1.138,1.138,0,0,1,.386-.373,1.012,1.012,0,0,1,.446.309q4.25,3.793,8.5,7.584a2.483,2.483,0,1,1-3.062,3.908c-.622-.5-1.2-1.052-1.79-1.571-.231.148-.14.317-.12.45a13.656,13.656,0,0,0,2.282,5.99c.379.537.383.541.989.286a18.791,18.791,0,1,1-3.41,33.042,2.968,2.968,0,1,1,3.322-4.907,12.966,12.966,0,1,0,9.164-23.507,12.713,12.713,0,0,0-8.533,1.774c-.6.364-1.2.737-1.78,1.125a.431.431,0,0,1-.61-.055,19.952,19.952,0,0,1-6.95-10.921C1578.775,1138.12,1578.608,1137.069,1578.42,1135.913Z" transform="translate(-1547.621 -1116.834)" fill="#fff"/>
    </g>
  </g>
</svg>
